{"title":"Snow.Beast.2011.BRRip.XviD.Ac3.Feel-Free","uid":6931366,"size":1300224470,"categoryP":"video","categoryS":"movies","magnet":"?xt=urn:btih:8c7f7b6b9a86244fe601ec080bb4219a622e0c29&amp;dn=Snow.Beast.2011.BRRip.XviD.Ac3.Feel-Free&amp;tr=udp%3A%2F%2Ftracker.openbittorrent.com%3A80&amp;tr=udp%3A%2F%2Fopen.demonii.com%3A1337&amp;tr=udp%3A%2F%2Ftracker.coppersurfer.tk%3A6969&amp;tr=udp%3A%2F%2Fexodus.desync.com%3A6969","seeders":0,"leechers":1,"uploader":"rcbcsk","files":-1,"time":1325674319,"description":"Genre: Drama | Sci-Fi | Thriller\nLanguage:English\nIMDb:http://www.imdb.com/title/tt1623765/\nSource:720p.BluRay.X264-7SinS Thanks!\n\nFormat : AVI\nFormat/Info : Audio Video Interleave\nFile size : 1.21 GiB\nDuration : 1h 30mn\nOverall bit rate : 1 911 Kbps\n\nVideo\nID : 0\nFormat : MPEG-4 Visual\nFormat profile : Advanced Simple@L5\nFormat settings, BVOP : Yes\nFormat settings, QPel : No\nFormat settings, GMC : No warppoints\nFormat settings, Matrix : Default (H.263)\nCodec ID : XVID\nCodec ID/Hint : XviD\nDuration : 1h 30mn\nBit rate : 1 453 Kbps\nWidth : 640 pixels\nHeight : 360 pixels\nDisplay aspect ratio : 16:9\nFrame rate : 23.976 fps\nColor space : YUV\nChroma subsampling : 4:2:0\nBit depth : 8 bits\nScan type : Progressive\nBits/(Pixel*Frame) : 0.263\nStream size : 942 MiB (76%)\nWriting library : XviD 1.2.1 (UTC 2008-12-04)\n\nAudio\nID : 1\nFormat : AC-3\nFormat/Info : Audio Coding 3\nMode extension : CM (complete main)\nCodec ID : 2000\nDuration : 1h 30mn\nBit rate mode : Constant\nBit rate : 448 Kbps\nChannel(s) : 6 channels\nChannel positions : Front: L C R, Side: L R, LFE\nSampling rate : 48.0 KHz\nBit depth : 16 bits\nStream size : 290 MiB (23%)\nAlignment : Aligned on interleaves\nInterleave, duration : 42 ms (1.00 video frame)\nInterleave, preload duration : 512 ms\n\n\n","torrent":{"xt":"urn:btih:8c7f7b6b9a86244fe601ec080bb4219a622e0c29","amp;dn":"Snow.Beast.2011.BRRip.XviD.Ac3.Feel-Free","amp;tr":["udp%3A%2F%2Ftracker.openbittorrent.com%3A80","udp%3A%2F%2Fopen.demonii.com%3A1337","udp%3A%2F%2Ftracker.coppersurfer.tk%3A6969","udp%3A%2F%2Fexodus.desync.com%3A6969"],"infoHash":"8c7f7b6b9a86244fe601ec080bb4219a622e0c29","infoHashBuffer":{"type":"Buffer","data":[140,127,123,107,154,134,36,79,230,1,236,8,11,180,33,154,98,46,12,41]},"announce":[],"urlList":[]}}